<svg width="136" height="35" viewBox="0 0 136 35" fill="none" xmlns="http://www.w3.org/2000/svg">
<path d="M25.5751 3.78013L21.0198 9.35334L16.0548 3.78013H6.9434L16.6559 14.6927L0.713867 34.1974C4.78874 29.7657 24.8671 12.2227 32.5234 3.78013H25.5751Z" fill="url(#paint0_linear_113_464)"/>
<path d="M44.8925 0C40.8177 4.43174 20.7392 21.9747 13.083 30.4173H20.0313L24.5866 24.8441L29.5516 30.4173H38.663L28.9505 19.5047L44.8925 0Z" fill="url(#paint1_linear_113_464)"/>
<path d="M38.7691 3.78013L10.6777 30.4173H7.14174L35.2331 3.78013H38.7691Z" fill="white"/>
<path d="M51.6656 21.4992H49.052V15.0736H45.3715V13.1371H55.2277V15.0736H51.6648L51.6656 21.4992Z" fill="white"/>
<path d="M60.9146 18.8292L58.856 16.9885H62.3551C62.6249 16.9885 62.8632 16.9088 63.07 16.7494C63.276 16.5899 63.3798 16.3645 63.3798 16.074C63.3652 15.8402 63.2591 15.6416 63.06 15.4783C62.8609 15.315 62.6372 15.2338 62.3882 15.2338H58.4947V21.5H55.8811V13.1387H62.6119C63.1945 13.1387 63.6819 13.1816 64.0731 13.2667C64.4644 13.3518 64.7857 13.4921 65.0386 13.6868C65.2908 13.8823 65.4776 14.146 65.599 14.4794C65.7197 14.8129 65.7804 15.2345 65.7804 15.7459C65.7804 16.803 65.5798 17.5811 65.1778 18.0809C64.7757 18.5808 64.0916 18.8307 63.1246 18.8307H60.9161L60.9146 18.8292Z" fill="white"/>
<path d="M75.8804 15.1487L75.8481 15.223L70.77 21.4678H66.5353V13.1379H68.9997V19.4463L69.0428 19.3397L74.0778 13.1379H78.3448V21.4678H75.8804V15.1487Z" fill="white"/>
<path d="M81.897 15.1594V21.5H79.2834V13.1387H89.2895V21.5H86.676V15.1594H81.897Z" fill="white"/>
<path d="M96.5214 15.2016L93.1722 21.4678H90.2704L94.8357 13.1379H98.1749L102.772 21.4678H99.8714L96.5214 15.2016Z" fill="white"/>
<path d="M112.736 19.5528V21.5H103.54V13.1387H112.736V15.0751H106.154V16.4795H112.33V18.1706H106.154V19.5536L112.736 19.5528Z" fill="white"/>
<path d="M116.267 13.1379V21.4992H113.653V13.1379H116.267ZM120.747 13.1379H124.214L119.424 17.1695L124.833 21.4992H121.046L116.267 17.1695L120.747 13.1379Z" fill="white"/>
<path d="M125.441 15.4569C125.441 14.691 125.663 14.113 126.107 13.7228C126.551 13.3326 127.236 13.1379 128.16 13.1379H135.371V15.1908H128.449C128.2 15.1908 128.015 15.2338 127.894 15.3189C127.773 15.404 127.712 15.5105 127.712 15.6378L127.68 16.3293V18.3079L127.712 18.9671C127.712 19.1235 127.771 19.2477 127.888 19.3397C128.006 19.4317 128.192 19.4777 128.449 19.4777H135.371V21.4992H128.16C127.236 21.4992 126.551 21.3045 126.107 20.9143C125.663 20.5241 125.441 19.9499 125.441 19.191V15.4569Z" fill="white"/>
<defs>
<linearGradient id="paint0_linear_113_464" x1="28.8357" y1="18.875" x2="37.0439" y2="-23.2803" gradientUnits="userSpaceOnUse">
<stop stop-color="#C1272D"/>
<stop offset="1" stop-color="#1F0607"/>
</linearGradient>
<linearGradient id="paint1_linear_113_464" x1="74.969" y1="9.64954" x2="73.3666" y2="37.5325" gradientUnits="userSpaceOnUse">
<stop stop-color="#C1272D"/>
<stop offset="1" stop-color="#1F0607"/>
</linearGradient>
</defs>
</svg>
