<svg width="186" height="91" viewBox="0 0 186 91" fill="none" xmlns="http://www.w3.org/2000/svg">
<path d="M100.39 7.81799L90.9753 19.3444L80.7142 7.81799H61.884L81.9565 30.3872L49.0097 70.7265C57.4311 61.5609 98.9264 25.2788 114.749 7.81799H100.39Z" fill="url(#paint0_linear_471_1649)"/>
<path d="M140.312 0C131.891 9.16564 90.3954 45.4477 74.5725 62.9085H88.9323L98.3466 51.3821L108.608 62.9085H127.438L107.365 40.3393L140.312 0Z" fill="url(#paint1_linear_471_1649)"/>
<path d="M127.657 7.81799L69.6017 62.9085H62.2939L120.349 7.81799H127.657Z" fill="white"/>
<path d="M13.0078 90.9984H7.60643V77.709H0V73.704H20.3696V77.709H13.0062V90.9984H13.0078Z" fill="white"/>
<path d="M32.1224 85.4762L27.868 81.6695H35.0995C35.6571 81.6695 36.1496 81.5046 36.5769 81.1748C37.0027 80.845 37.2172 80.3789 37.2172 79.778C37.187 79.2944 36.9677 78.8838 36.5563 78.5461C36.1448 78.2084 35.6825 78.0403 35.1678 78.0403H27.1213V91H21.7199V73.7072H35.6301C36.8343 73.7072 37.8415 73.796 38.6501 73.972C39.4587 74.148 40.1228 74.4381 40.6454 74.8408C41.1665 75.2451 41.5526 75.7905 41.8036 76.4802C42.053 77.1699 42.1785 78.0419 42.1785 79.0994C42.1785 81.2858 41.7639 82.8951 40.933 83.9288C40.1021 84.9625 38.6882 85.4794 36.6897 85.4794H32.1256L32.1224 85.4762Z" fill="white"/>
<path d="M63.0517 77.8643L62.985 78.0181L52.4904 90.9334H43.7385V73.7056H48.8317V86.7525L48.9207 86.5321L59.3263 73.7056H68.1449V90.9334H63.0517V77.8643Z" fill="white"/>
<path d="M75.486 77.8865V91H70.0846V73.7072H90.764V91H85.3626V77.8865H75.486Z" fill="white"/>
<path d="M105.71 77.9737L98.7882 90.9334H92.7911L102.226 73.7056H109.127L118.629 90.9334H112.633L105.712 77.9737H105.71Z" fill="white"/>
<path d="M139.219 86.9729V91H120.216V73.7072H139.219V77.7121H125.617V80.6167H138.382V84.1143H125.617V86.9745H139.219V86.9729Z" fill="white"/>
<path d="M146.517 73.7056V90.9984H141.116V73.7056H146.517ZM155.776 73.7056H162.941L153.042 82.0436L164.22 90.9984H156.394L146.517 82.0436L155.776 73.7056Z" fill="white"/>
<path d="M165.476 78.5017C165.476 76.9178 165.935 75.7224 166.854 74.9154C167.772 74.1083 169.186 73.7056 171.097 73.7056H186V77.9515H171.693C171.178 77.9515 170.797 78.0403 170.546 78.2163C170.296 78.3923 170.171 78.6127 170.171 78.8759L170.104 80.306V84.3981L170.171 85.7616C170.171 86.085 170.291 86.3419 170.535 86.5321C170.778 86.7224 171.162 86.8175 171.693 86.8175H186V90.9984H171.097C169.186 90.9984 167.772 90.5957 166.854 89.7887C165.935 88.9817 165.476 87.7942 165.476 86.2245V78.5017Z" fill="white"/>
<defs>
<linearGradient id="paint0_linear_471_1649" x1="38.8442" y1="50.2268" x2="77.1306" y2="-51.8405" gradientUnits="userSpaceOnUse">
<stop stop-color="#C1272D"/>
<stop offset="1" stop-color="#1F0607"/>
</linearGradient>
<linearGradient id="paint1_linear_471_1649" x1="102.567" y1="25.6776" x2="94.4255" y2="99.2183" gradientUnits="userSpaceOnUse">
<stop stop-color="#C1272D"/>
<stop offset="1" stop-color="#1F0607"/>
</linearGradient>
</defs>
</svg>
