<svg viewBox="0 0 16 18" xmlns="http://www.w3.org/2000/svg"><path d="M7.768.92a.63.63 0 0 1 .539.035l6.667 3.75c.196.11.318.32.318.545v7.5a.63.63 0 0 1-.318.545l-6.667 3.75a.63.63 0 0 1-.613 0l-6.667-3.75a.63.63 0 0 1-.318-.545v-7.5c0-.226.122-.434.318-.545L7.694.955zM1.959 5.615v6.769L8 15.782l6.042-3.398V5.615L8 2.217z"/><path d="M14.477 4.654a.625.625 0 0 1 .496 1.14l-6.666 3.75a.626.626 0 0 1-.613-1.089l6.667-3.75z"/><path d="M7.375 16.5V9a.625.625 0 1 1 1.25 0v7.5a.625.625 0 1 1-1.25 0"/><path d="M.79 4.943a.626.626 0 0 1 .735-.289l.116.051 6.666 3.75a.625.625 0 0 1-.496 1.14l-.116-.05-6.667-3.75-.104-.073a.626.626 0 0 1-.135-.779"/><path d="M11.143 2.78a.625.625 0 0 1 .496 1.14L4.973 7.67a.626.626 0 0 1-.613-1.09l6.667-3.75z"/></svg>