<svg viewBox="0 0 16 17" xmlns="http://www.w3.org/2000/svg"><path d="M8.006 3.5a.3.3 0 0 0-.111.019L.762 6.49a.31.31 0 0 0-.186.278c0 .12.075.233.186.279l7.133 2.972a.3.3 0 0 0 .111.019q.059.002.112-.019l7.133-2.972a.31.31 0 0 0 .186-.279.31.31 0 0 0-.186-.278L8.118 3.519a.3.3 0 0 0-.112-.019M.817 7.958a.297.297 0 0 0-.056.576l7.134 2.972c.072.03.15.03.223 0l7.133-2.972a.3.3 0 1 0-.223-.557l-7.022 2.925L.985 7.977a.3.3 0 0 0-.168-.019m0 1.486a.297.297 0 0 0-.056.576l7.134 2.972c.072.03.15.03.223 0l7.133-2.972a.3.3 0 1 0-.223-.557l-7.022 2.926L.985 9.463a.3.3 0 0 0-.168-.019m0 1.486a.297.297 0 0 0-.056.576l7.134 2.972c.072.03.15.03.223 0l7.133-2.972a.3.3 0 1 0-.223-.557l-7.022 2.925L.985 10.95a.3.3 0 0 0-.168-.019"/></svg>