<svg viewBox="0 0 32 32" xmlns="http://www.w3.org/2000/svg"><path d="M9.303 16.88c-.372 0-.869 0-1.264-.018 0 .006-.286.012-.286.018z"/><path d="M9.939 6.009h9.807c1.92-.002 2.053-.249 2.053 2.057v3.711c0 .38.018.758 0 1.137-.827 0-1.485.032-2.307 0 0-1.445-.021-3.104 0-4.549-.759 0-1.308.007-1.947.004l-3.615-.001h-2.535c.107.377.165.96.235 1.344l1.405 7.014c.144.719-.2 1.39-.936 1.39a1.2 1.2 0 0 1-1.169-.97c-.356-1.808-.937-4.256-1.2-5.754-.258-1.47-.615-2.93-.779-4.415-.075-.68.412-.922.988-.968"/><path d="M28.98 16.02c-.023-1.817.033-1.567-1.67-1.567H14.004l.553 2.409 9.512-.006c.242-.002.77.011 1.012.006-.337 1.652-.648 3.433-.943 5.095-.151.856-.403 2.854-.403 2.854h-12.83c-.436 0-1.165.015-1.601 0l-1.215-6.33c-.107-.509-.282-1.092-.335-1.601 0-.006.287-.012.286-.018.396.018.892.018 1.264.018l-.62-2.432-3.394.006c-.511.013-1.057-.083-1.199.523-.119.508-.096 1.41-.067 1.966 0 1.296 1.185 1.172 1.682 1.172.055.06.405 2.111.457 2.357l1.092 5.305C7.512 26.997 7.601 27 8.663 27h14.796c1.281 0 2.007-1.077 2.254-2.329.229-1.158.46-2.479.523-2.79l.467-2.367c.091-.477.126-.777.245-1.399l.668-.002c1.6-.001 1.382-.759 1.365-2.092"/></svg>