<svg viewBox="0 0 16 17" xmlns="http://www.w3.org/2000/svg"><path d="M3.334 1.5A2.335 2.335 0 0 0 1 3.833a2.335 2.335 0 0 0 2.925 2.26c-.335-.424-.715-.731-1.039-.871a1.46 1.46 0 0 1 .448-2.847 1.46 1.46 0 0 1 1.392 1.023c.143.323.445.696.864 1.03q.076-.285.077-.595A2.334 2.334 0 0 0 3.334 1.5m9.332 0a2.334 2.334 0 0 0-2.257 2.928c.444-.35.758-.75.872-1.05.263-.638.78-1.003 1.384-1.003a1.46 1.46 0 0 1 .452 2.847c-.324.14-.706.443-1.042.87A2.335 2.335 0 0 0 15 3.833a2.335 2.335 0 0 0-2.334-2.332M3.334 2.958a.875.875 0 0 0-.266 1.708c1.011.406 2.307 1.942 2.307 3.834 0 1.888-1.29 3.42-2.3 3.831a.875.875 0 1 0 1.092 1.1c.41-1.013 1.945-2.306 3.834-2.306 1.884 0 3.415 1.285 3.829 2.297a.875.875 0 0 0 1.404.409.875.875 0 0 0-.3-1.497c-1.012-.405-2.308-1.941-2.308-3.834 0-1.888 1.289-3.42 2.3-3.831a.875.875 0 1 0-1.096-1.091C11.416 4.59 9.885 5.875 8 5.875c-1.888 0-3.422-1.29-3.833-2.304a.875.875 0 0 0-.834-.613m0 7.875a2.332 2.332 0 1 0 2.256 1.742c-.42.33-.72.704-.864 1.027a1.458 1.458 0 1 1-1.85-1.82c.326-.14.71-.443 1.049-.87a2.3 2.3 0 0 0-.591-.079m9.332 0q-.306.002-.59.078c.35.44.75.755 1.083.887.534.163.965.715.965 1.369a1.459 1.459 0 0 1-2.843.455c-.28-.494-.538-.786-.87-1.05q-.076.286-.078.595a2.332 2.332 0 1 0 2.333-2.333"/></svg>