<svg viewBox="0 0 25 25" xmlns="http://www.w3.org/2000/svg"><path d="M3.75 8.5v-2A2.75 2.75 0 0 1 6.5 3.75h2a.75.75 0 0 1 0 1.5h-2A1.25 1.25 0 0 0 5.25 6.5v2a.75.75 0 0 1-1.5 0"/><path d="M5.25 16.5v2a1.25 1.25 0 0 0 .366.884 1.25 1.25 0 0 0 .884.366h2a.75.75 0 0 1 0 1.5h-2a2.75 2.75 0 0 1-2.75-2.75v-2a.75.75 0 0 1 1.5 0"/><path d="M16.5 3.75h2a2.75 2.75 0 0 1 2.75 2.75v2a.75.75 0 0 1-1.5 0v-2a1.25 1.25 0 0 0-1.25-1.25h-2a.75.75 0 0 1 0-1.5"/><path d="M16.5 19.75h2a1.25 1.25 0 0 0 .884-.366 1.25 1.25 0 0 0 .366-.884v-2a.75.75 0 0 1 1.5 0v2a2.75 2.75 0 0 1-.805 1.944 2.75 2.75 0 0 1-1.945.806h-2a.75.75 0 0 1 0-1.5"/></svg>