<svg viewBox="0 0 18 18" xmlns="http://www.w3.org/2000/svg"><path d="M6.997 2.45c.51-2.1 3.496-2.1 4.006 0l.028.092a.815.815 0 0 0 .823.526.8.8 0 0 0 .36-.116l.175-.096c1.742-.867 3.623 1.013 2.756 2.756l-.096.174a.812.812 0 0 0 .5 1.211c2.035.494 2.099 3.312.191 3.951l-.19.055a.814.814 0 0 0-.502 1.212l.095.174c.868 1.742-1.012 3.623-2.755 2.756l-.174-.096a.812.812 0 0 0-1.211.5c-.494 2.035-3.313 2.099-3.951.191l-.055-.19a.814.814 0 0 0-1.127-.547l-.085.045c-1.845 1.124-3.958-.988-2.834-2.834l.045-.084a.812.812 0 0 0-.546-1.127c-2.1-.51-2.1-3.496 0-4.006l.092-.028a.813.813 0 0 0 .455-1.099l-.045-.085C1.828 3.94 3.94 1.827 5.786 2.951a.81.81 0 0 0 1.211-.5m2.791.295C9.6 1.97 8.555 1.921 8.26 2.6l-.048.145a2.06 2.06 0 0 1-3.076 1.273c-.727-.442-1.559.39-1.117 1.117l.115.214a2.063 2.063 0 0 1-1.389 2.863c-.826.2-.826 1.376 0 1.576l.231.071a2.064 2.064 0 0 1 1.157 2.791l-.115.214c-.442.727.39 1.559 1.117 1.116l.214-.114a2.063 2.063 0 0 1 2.863 1.389c.2.826 1.376.826 1.576 0l.071-.232a2.064 2.064 0 0 1 3.005-1.042l.137.069c.643.253 1.3-.405 1.048-1.048l-.069-.137a2.063 2.063 0 0 1 1.275-3.077c.775-.188.823-1.233.145-1.528l-.145-.048a2.065 2.065 0 0 1-1.274-3.076l.069-.137c.253-.643-.405-1.3-1.048-1.048l-.137.068a2.062 2.062 0 0 1-3.077-1.274"/><path d="M10.875 9a1.876 1.876 0 1 0-3.751-.001A1.876 1.876 0 0 0 10.875 9m1.25 0a3.126 3.126 0 1 1-6.251 0 3.126 3.126 0 0 1 6.251 0"/></svg>