<svg viewBox="0 0 16 17" xmlns="http://www.w3.org/2000/svg"><path d="M4.116 3.569q-.173.001-.405.046c-.617.125-.863.36-.863.36l-.008.252-.22.044a.28.28 0 0 0-.177.126C2.383 4.492 1 6.751 1 9.922c0 .747.039 1.46.115 2.12a1.64 1.64 0 0 0 1.345 1.43l.52.088a.54.54 0 0 0 .593-.318l1.084-2.16a.56.56 0 0 1 .5-.31h5.687c.212 0 .404.118.5.31l1.074 2.142c.1.241.348.38.602.336l.52-.088a1.64 1.64 0 0 0 1.345-1.43c.076-.66.115-1.373.115-2.12 0-3.171-1.384-5.43-1.443-5.525a.28.28 0 0 0-.176-.126l-.221-.044-.008-.252s-.246-.235-.863-.36-.92.042-.92.042l-.055.272A26 26 0 0 0 8 3.699a26 26 0 0 0-3.314.23l-.056-.272s-.17-.094-.514-.088m7.664 1.544c.232 0 .42.19.42.424a.42.42 0 0 1-.42.425.42.42 0 0 1-.42-.425c0-.234.188-.424.42-.424m-7.97.283h.26a.29.29 0 0 1 .283.339l-.035.21a.3.3 0 0 1-.09.166L4.02 6.3a.12.12 0 0 1-.16 0l-.208-.189a.3.3 0 0 1-.09-.167l-.036-.21a.29.29 0 0 1 .283-.338m7.13.566c.232 0 .42.19.42.424a.42.42 0 0 1-.42.425.42.42 0 0 1-.42-.425c0-.234.188-.424.42-.424m1.68 0c.232 0 .42.19.42.424a.42.42 0 0 1-.42.425.42.42 0 0 1-.42-.425c0-.234.188-.424.42-.424m-9.53.144a.3.3 0 0 1 .065.004l.208.036a.3.3 0 0 1 .165.092l.186.209a.12.12 0 0 1 0 .162l-.186.21a.3.3 0 0 1-.166.091l-.207.035a.288.288 0 0 1-.335-.285v-.264a.29.29 0 0 1 .27-.29m1.7 0c.147.008.27.132.27.29v.264c0 .18-.16.316-.335.285l-.207-.035a.3.3 0 0 1-.166-.092l-.186-.21a.12.12 0 0 1 0-.161l.186-.21a.3.3 0 0 1 .165-.092l.208-.035a.3.3 0 0 1 .064-.004m-.85.618q.046 0 .08.031l.208.19a.3.3 0 0 1 .09.166l.036.21a.29.29 0 0 1-.283.338H3.81a.29.29 0 0 1-.283-.338l.035-.21a.3.3 0 0 1 .09-.167l.208-.189a.12.12 0 0 1 .08-.03m7.84.087c.232 0 .42.19.42.424a.42.42 0 0 1-.42.424.42.42 0 0 1-.42-.424c0-.234.188-.424.42-.424m-5.74 1.13c.464 0 .84.38.84.849a.844.844 0 0 1-.84.849.844.844 0 0 1-.84-.85c0-.468.376-.848.84-.848m3.92 0c.464 0 .84.38.84.849a.844.844 0 0 1-.84.849.844.844 0 0 1-.84-.85c0-.468.376-.848.84-.848"/></svg>