<svg viewBox="0 0 32 32" xmlns="http://www.w3.org/2000/svg"><path d="M21.13 3h.425c.285.153.5.238.604.578.055.182.047.33.003.513-.062.25-.15.498-.225.745l-.414 1.34-1.28 4.16-.763 2.482-.23.75c-.04.131-.074.275-.13.4h5.1c.22-.001.455-.019.672.017a.8.8 0 0 1 .443.232c.166.169.24.384.236.619a.83.83 0 0 1-.214.543c-.204.246-.443.475-.663.708l-1.345 1.43-4.251 4.517-4.946 5.255-1.576 1.675c-.253.269-.5.558-.766.814a1.1 1.1 0 0 1-.353.203c-.021.008-.013.004-.034.019h-.405c-.053-.032-.114-.053-.169-.08a.85.85 0 0 1-.414-.43.93.93 0 0 1-.038-.522c.044-.207.118-.413.18-.616l.335-1.082 1.074-3.49.987-3.209.301-.983c.056-.183.103-.377.177-.553H9.446l-.906.001c-.285.001-.694.038-.958-.038a.84.84 0 0 1-.483-.4.88.88 0 0 1-.061-.662 1 1 0 0 1 .224-.376c.346-.388.716-.76 1.073-1.137l1.688-1.794 5.109-5.427 3.415-3.63 1.562-1.66c.219-.23.424-.478.655-.695.108-.102.218-.133.344-.204z"/></svg>