<svg viewBox="0 0 16 17" xmlns="http://www.w3.org/2000/svg"><path d="M2.24 1.78a.96.96 0 0 0-.96.96v11.52c0 .53.431.96.96.96h11.52c.53 0 .96-.43.96-.96V2.74a.96.96 0 0 0-.96-.96zM4.8 3.06a.32.32 0 1 1 0 .64.32.32 0 0 1 0-.64m1.28 0a.32.32 0 1 1 0 .64.32.32 0 0 1 0-.64m1.28 0a.32.32 0 1 1 0 .64.32.32 0 0 1 0-.64m1.28 0a.32.32 0 1 1 0 .64.32.32 0 0 1 0-.64m1.28 0a.32.32 0 1 1 0 .64.32.32 0 0 1 0-.64m1.28 0a.32.32 0 1 1 0 .64.32.32 0 0 1 0-.64M2.88 4.98a.32.32 0 1 1 0 .64.32.32 0 0 1 0-.64m10.24 0a.32.32 0 1 1 0 .64.32.32 0 0 1 0-.64m-8 .32h5.76a.32.32 0 0 1 .32.32v5.76a.32.32 0 0 1-.32.32H5.12a.32.32 0 0 1-.32-.32V5.62a.32.32 0 0 1 .32-.32m.32.64v5.12h5.12V5.94zm-2.56.32a.32.32 0 1 1 0 .64.32.32 0 0 1 0-.64m10.24 0a.32.32 0 1 1 0 .64.32.32 0 0 1 0-.64M2.88 7.54a.32.32 0 1 1 0 .64.32.32 0 0 1 0-.64m10.24 0a.32.32 0 1 1 0 .64.32.32 0 0 1 0-.64M2.88 8.82a.32.32 0 1 1 0 .64.32.32 0 0 1 0-.64m10.24 0a.32.32 0 1 1 0 .64.32.32 0 0 1 0-.64M2.88 10.1a.32.32 0 1 1 0 .64.32.32 0 0 1 0-.64m10.24 0a.32.32 0 1 1 0 .64.32.32 0 0 1 0-.64M2.88 11.38a.32.32 0 1 1 0 .64.32.32 0 0 1 0-.64m10.24 0a.32.32 0 1 1 0 .64.32.32 0 0 1 0-.64M4.8 13.3a.32.32 0 1 1 0 .64.32.32 0 0 1 0-.64m1.28 0a.32.32 0 1 1 0 .64.32.32 0 0 1 0-.64m1.28 0a.32.32 0 1 1 0 .64.32.32 0 0 1 0-.64m1.28 0a.32.32 0 1 1 0 .64.32.32 0 0 1 0-.64m1.28 0a.32.32 0 1 1 0 .64.32.32 0 0 1 0-.64m1.28 0a.32.32 0 1 1 0 .64.32.32 0 0 1 0-.64"/></svg>