<svg viewBox="0 0 16 17" xmlns="http://www.w3.org/2000/svg"><path d="M6.544 6.466c.125-.008.252-.002.376-.001l.637.004c.412.003.827-.009 1.239.005.032.001.072.002.102.014.054.023.117.087.165.122l.442.32c-.03.138-.012.548-.012.71.001.49-.003.983.003 1.474-.17.104-.332.233-.492.352-.05.037-.096.084-.148.116-.398.007-.798-.009-1.196-.007l-.728.003c-.137 0-.276.004-.412-.005-.204-.166-.435-.316-.619-.503-.005-.182-.001-.364-.002-.546l-.005-.985c0-.204.012-.415-.004-.617.149-.09.288-.204.428-.307.069-.05.146-.12.226-.15"/><path d="M13.026 5.957c.337-.017.68-.003 1.019-.004.293 0 .594-.015.886.002a.234.234 0 0 1 .23.165c.03.09.014.47.014.59l.001 2.413c0 .218.01.439 0 .656a.3.3 0 0 1-.032.138.26.26 0 0 1-.168.124c-.404.011-.811 0-1.216 0-.245-.001-.5.016-.745-.002a.2.2 0 0 1-.098-.027.25.25 0 0 1-.105-.142c-.022-.102-.006-.234-.006-.34V7.056c0-.28-.01-.566 0-.847a.27.27 0 0 1 .04-.153c.042-.063.109-.086.18-.099"/><path d="M13.225 6.262c.25-.014.503-.003.753-.003.122 0 .264-.019.383.004a.1.1 0 0 1 .069.04c.024.039.02.089.01.13-.01.044-.022.06-.06.082l-.017.003c-.184.016-.38.004-.565.004-.17 0-.36.015-.527-.008-.026-.004-.043-.008-.062-.027-.022-.021-.03-.061-.03-.091.001-.052.01-.095.046-.134"/><path d="M14.62 6.262c.033-.002.074-.008.106 0a.16.16 0 0 1 .092.074.1.1 0 0 1 .008.08.16.16 0 0 1-.085.096c-.027.005-.057.012-.084.007a.15.15 0 0 1-.097-.07.13.13 0 0 1-.014-.105c.013-.043.036-.061.074-.082"/><path d="M2.751 6.36c.103.006.209.001.312.001h.624c.105.09.2.19.303.282.105.095.23.187.322.295a.14.14 0 0 1 .038.083c.01.093.005.192.005.285l.002 1.264c0 .169.003.34-.008.509-.093.106-.212.202-.315.3q-.176.162-.347.33c-.31.004-.621 0-.932-.002-.011-.176 0-.358 0-.534l.003-.903-.002-1.224c-.001-.229-.011-.458-.005-.686"/><path d="M11.746 6.356c.287-.016.584-.006.872-.003a89 89 0 0 0 0 1.54l-.006 1.765h-.703l-.213-.002c-.133-.127-.284-.24-.426-.355-.068-.054-.143-.107-.2-.172l-.009-.01-.007-.008c-.016-.019-.016-.042-.018-.065-.005-.106.001-.214.002-.32V7.344c0-.134-.003-.27.006-.403.133-.122.274-.236.41-.354.081-.07.16-.153.245-.214a.1.1 0 0 1 .047-.017"/><path d="M7.007 9.766c.485.008.97 0 1.456.004.03.198.093.398.141.593l.277 1.132c-.134.005-.27 0-.403 0-.631 0-1.266.013-1.896-.003.093-.366.175-.736.262-1.103.05-.209.096-.419.163-.623"/><path d="M7.385 10.84c.13.006.59-.012.675.01.037.01.066.039.085.072a.15.15 0 0 1 .016.119.21.21 0 0 1-.11.136c-.147-.004-.616.022-.72-.032a.15.15 0 0 1-.079-.095.23.23 0 0 1 .033-.151c.025-.04.056-.05.1-.06"/><path d="m4.543 6.968 1.19-.002c-.016.706-.007 1.414-.015 2.12-.39.008-.78-.002-1.17.002V7.73c0-.251.014-.513-.005-.763"/><path d="m10.344 6.97.501-.001-.001 2.12-.688-.002q-.237-.004-.474-.001c-.014-.703-.004-1.41-.007-2.112.223-.006.446-.004.669-.004"/><path d="M2.264 5.82a.26.26 0 0 1 .136.034.3.3 0 0 1 .146.177c.028.114.01.313.01.433v2.574c0 .285.01.572 0 .856-.002.068-.002.127-.04.186a.33.33 0 0 1-.215.138.26.26 0 0 1-.159-.044.28.28 0 0 1-.12-.152c-.038-.183-.016-.397-.015-.584l.001-.887v-1.57c0-.27-.012-.546.002-.816.004-.08.007-.156.053-.224a.3.3 0 0 1 .201-.12"/><path d="M1.012 6.389a.3.3 0 0 1 .11.022c.047.021.1.063.115.115.031.11.015.492.015.633l.004 1.476c0 .26.02.541.006.796a.3.3 0 0 1-.037.123c-.038.065-.093.094-.162.113a.23.23 0 0 1-.119-.025c-.04-.02-.088-.059-.1-.105-.04-.155-.019-.403-.018-.568l.001-.78-.002-1.017c0-.187-.006-.376.002-.563a.2.2 0 0 1 .02-.092.27.27 0 0 1 .165-.128"/><path d="m6.873 5.509 1.148-.001c.204-.002.417-.017.62 0 .055.004.107.017.143.063a.2.2 0 0 1 .033.165.21.21 0 0 1-.104.148c-.045.007-.09.006-.135.007-.43-.01-.86-.004-1.29-.004-.146 0-.42.017-.548-.008a.15.15 0 0 1-.092-.066.2.2 0 0 1-.017-.15c.019-.074.056-.109.119-.148z"/><path d="M1.793 6.632c.028.048.007 2.48.015 2.757a2 2 0 0 0-.136-.188c-.062-.073-.17-.176-.196-.268-.027-.098-.01-.396-.01-.51 0-.44.01-.886-.01-1.326.1-.16.23-.308.337-.465"/><path d="M6.919 5.99c.537-.009 1.077 0 1.614.008l.004.321-1.623.002c.008-.11.004-.222.005-.332"/></svg>