<svg viewBox="0 0 17 20" xmlns="http://www.w3.org/2000/svg"><path fill-rule="evenodd" clip-rule="evenodd" d="M10 0a1 1 0 0 1 1 1v4h4a1 1 0 1 1 0 2h-4a2 2 0 0 1-2-2V1a1 1 0 0 1 1-1"/><path fill-rule="evenodd" clip-rule="evenodd" d="M3 2a1 1 0 0 0-1 1v7a1 1 0 1 1-2 0V3a3 3 0 0 1 3-3h7a1 1 0 0 1 .707.293l5 5A1 1 0 0 1 16 6v4a1 1 0 1 1-2 0V6.414L9.586 2z"/><path fill-rule="evenodd" clip-rule="evenodd" d="M0 13a1 1 0 0 1 1-1h1.5a2.5 2.5 0 0 1 0 5H2v2a1 1 0 1 1-2 0zm2 2h.5a.5.5 0 0 0 0-1H2z"/><path fill-rule="evenodd" clip-rule="evenodd" d="M12 16a1 1 0 0 1 1-1h2a1 1 0 1 1 0 2h-2a1 1 0 0 1-1-1"/><path fill-rule="evenodd" clip-rule="evenodd" d="M12 13a1 1 0 0 1 1-1h3a1 1 0 1 1 0 2h-2v5a1 1 0 1 1-2 0z"/><path fill-rule="evenodd" clip-rule="evenodd" d="M6 13a1 1 0 0 1 1-1h1a3 3 0 0 1 3 3v2a3 3 0 0 1-3 3H7a1 1 0 0 1-1-1zm2 1v4a1 1 0 0 0 1-1v-2a1 1 0 0 0-1-1"/></svg>