<svg viewBox="0 0 18 18" xmlns="http://www.w3.org/2000/svg"><path d="M9.208 4.833a2.71 2.71 0 0 0-5.417 0 2.71 2.71 0 0 0 5.417 0m1.25 0a3.959 3.959 0 1 1-7.917-.002 3.959 3.959 0 0 1 7.917.002"/><path d="M10.875 16.5v-1.667a2.71 2.71 0 0 0-2.708-2.708H4.833a2.71 2.71 0 0 0-2.708 2.708V16.5a.625.625 0 1 1-1.25 0v-1.667a3.96 3.96 0 0 1 3.958-3.958h3.334a3.96 3.96 0 0 1 3.958 3.958V16.5a.625.625 0 1 1-1.25 0"/><path d="M14.216 4.838a2.71 2.71 0 0 0-1.821-2.56l-.216-.064-.118-.044a.625.625 0 0 1 .303-1.186l.125.019.315.095a3.958 3.958 0 0 1-.315 7.574.625.625 0 0 1-.31-1.211 2.71 2.71 0 0 0 2.037-2.623"/><path d="M15.875 16.5v-1.663a2.71 2.71 0 0 0-1.817-2.542l-.214-.065-.119-.043A.626.626 0 0 1 14.032 11l.125.019.312.094a3.96 3.96 0 0 1 2.656 3.716v1.67a.625.625 0 1 1-1.25 0"/></svg>