<svg viewBox="0 0 32 32" xmlns="http://www.w3.org/2000/svg"><path d="M7.852 20.68a.635.635 0 0 0-.518.64v1.014l.01.294c.105 1.444.988 2.5 2.494 3.33 1.506.832 3.602 1.313 5.735 1.37l.428.006c2.136 0 4.271-.43 5.854-1.214l.308-.161c1.506-.831 2.39-1.887 2.494-3.331l.01-.294v-1.015a.635.635 0 0 0-.518-.64l-.134-.012H7.986zm2.49-11.64.004-.049-.004.052-.008.29zm16.325 13.294-.004.223c-.091 2.295-1.578 4.073-3.533 5.152l-.385.2c-1.953.975-4.35 1.425-6.744 1.425v-1c2.207 0 4.364-.405 6.111-1.23-1.73.81-3.944 1.23-6.111 1.23-2.141 0-4.33-.409-6.05-1.201 1.736.806 3.869 1.2 6.05 1.2v1l-.48-.005c-2.233-.056-4.442-.51-6.265-1.418l-.384-.201C6.917 26.63 5.43 24.852 5.34 22.557l-.005-.223v-1.015a2.67 2.67 0 0 1 2.383-2.639l.27-.013h16.028l.27.013a2.67 2.67 0 0 1 2.382 2.64zM11.34 9.574a4.65 4.65 0 0 0 4.42 4.42L16 14a4.65 4.65 0 0 0 4.66-4.425l.006-.241a4.65 4.65 0 0 0-4.425-4.661L16 4.667a4.65 4.65 0 0 0-4.667 4.667zm11.318.102C22.478 13.188 19.556 16 16.001 16l-.343-.009c-3.399-.174-6.142-2.917-6.315-6.315l-.009-.342c0-3.67 2.997-6.667 6.667-6.667l.342.009c3.512.179 6.324 3.102 6.324 6.658z"/></svg>