<svg viewBox="0 0 16 17" xmlns="http://www.w3.org/2000/svg"><path d="M8.913 2.109a.304.304 0 0 0 0 .608h1.519c.144 0 .27.103.3.25L11.976 8.5l.218 1.096c-.01.01-.023.017-.032.03l-1.83 2.526H5.71a.3.3 0 0 0-.014-.101 3.05 3.05 0 0 0-4.274-1.687.305.305 0 0 0 .28.54 2.435 2.435 0 0 1 3.374 1.248h-.672a1.826 1.826 0 1 0 .148 1.502q.046.018.1.02h5.173c.098 0 .19-.047.247-.126l2.28-3.15.19.955a1.83 1.83 0 0 0-1.195 1.712c0 1.007.819 1.826 1.826 1.826A1.83 1.83 0 0 0 15 13.065a1.83 1.83 0 0 0-1.826-1.826l-.032.002-.502-2.52c-.001-.014.003-.028 0-.042l-.066-.29-.052-.261c-.002-.013-.01-.023-.014-.036L11.327 2.84a.92.92 0 0 0-.895-.73zm-6.087 9.739a1.219 1.219 0 0 1 0 2.435 1.219 1.219 0 0 1 0-2.435m10.438.009a1.215 1.215 0 0 1-.09 2.426 1.22 1.22 0 0 1-1.217-1.218c0-.489.29-.908.707-1.102l.127.633a.605.605 0 0 0 .383 1.078.608.608 0 0 0 .218-1.175zm-10.438.6a.61.61 0 1 0 .001 1.218.61.61 0 0 0 0-1.219"/></svg>