<svg viewBox="0 0 18 18" xmlns="http://www.w3.org/2000/svg"><path d="M14.188 8.063a6.125 6.125 0 1 0-12.25 0 6.125 6.125 0 0 0 12.25 0m1.5 0a7.625 7.625 0 1 1-15.25 0 7.625 7.625 0 0 1 15.25 0"/><path d="M12.532 12.532a.75.75 0 0 1 1.06 0l.01.01.01.009.009.01.01.01.01.008.008.01.075.074.01.009.008.01.009.008.01.01.009.009.017.018.01.008.009.01.324.324.009.008.007.009.056.056.009.007.008.01.101.1.008.008.007.007.136.136.008.007.006.008.008.007.007.007.008.007.007.008.057.058.008.006.007.008.077.078.008.006.007.008.054.055.008.007.034.034.006.007.062.061.007.006.005.007.028.027.007.006.005.007.04.04.007.006.006.007.085.085.007.005.006.007.02.02.006.006.006.007.152.152.007.006.006.007.031.03.007.007.006.006.019.02.006.005.006.007.019.018.007.006.006.007.037.037.006.006.006.007.038.037.006.006.006.007.037.037.007.006.006.006.037.037.007.006.006.007.037.037.007.006.006.007.018.019.007.005.006.007.018.019.007.006.006.007.031.03.007.007.006.007.152.152.007.006.006.006.02.02.006.006.006.007.085.085.007.006.006.006.04.04.007.006.006.007.027.027.007.006.006.007.061.062.007.006.034.034.007.008.055.054.008.007.006.008.078.077.007.007.007.008.058.057.008.007.007.008.007.007.007.008.008.006.007.008.136.136.007.007.007.008.102.101.009.008.007.009.056.056.009.007.008.01.324.323.01.01.008.009.018.017.01.01.009.009.008.009.01.009.009.01.074.073.01.01.009.01.01.009.01.009.008.01.01.01.052.056a.75.75 0 0 1-1.056 1.056l-.057-.052-.01-.01-.01-.009-.008-.01-.01-.01-.01-.008-.009-.01-.074-.074-.01-.009-.008-.01-.009-.009-.01-.008-.009-.01-.017-.018-.01-.008-.009-.01-.324-.324-.009-.008-.008-.009-.055-.056-.009-.008-.008-.008-.101-.102-.008-.007-.007-.008-.136-.135-.008-.007-.006-.008-.008-.007-.007-.008-.008-.006-.007-.008-.057-.058-.008-.007-.007-.007-.077-.078-.008-.006-.007-.008-.054-.055-.008-.007-.034-.034-.006-.007-.062-.061-.007-.006-.005-.007-.028-.027-.007-.006-.006-.007-.04-.04-.006-.006-.006-.007-.085-.085-.007-.006-.006-.006-.02-.02-.006-.006-.006-.007-.152-.152-.007-.006-.006-.007-.031-.03-.007-.007-.006-.007-.019-.018-.007-.006-.005-.007-.019-.018-.007-.006-.006-.007-.037-.037-.007-.006-.005-.007-.038-.037-.006-.006-.006-.007-.037-.037-.007-.006-.006-.006-.037-.038-.007-.005-.006-.007-.037-.037-.007-.006-.006-.007-.018-.019-.007-.006-.006-.006-.018-.019-.007-.006-.006-.007-.031-.03-.007-.007-.006-.007-.152-.152-.007-.006-.006-.007-.02-.02-.006-.005-.006-.007-.085-.085-.007-.006-.006-.007-.04-.04-.007-.005-.006-.007-.027-.028-.007-.005-.006-.007-.061-.062-.007-.006-.034-.034-.007-.008-.055-.054-.008-.007-.006-.008-.078-.077-.008-.007-.006-.008-.058-.057-.008-.007-.007-.008-.007-.007-.007-.008-.008-.006-.007-.008-.136-.136-.007-.007-.007-.008-.102-.101-.009-.008-.007-.009-.056-.056-.009-.007-.008-.01-.324-.323-.01-.01-.008-.009-.018-.018-.01-.008-.009-.01-.008-.009-.01-.009-.009-.01-.074-.074-.01-.008-.009-.01-.01-.01-.01-.009-.008-.01-.01-.01a.75.75 0 0 1 0-1.06"/></svg>