<svg viewBox="0 0 48 48" xmlns="http://www.w3.org/2000/svg"><path d="M44.41 11.1C37.23 0 22.57-3.3 11.202 3.6c-11.07 6.9-14.66 21.9-7.48 33l.599.9-2.394 9 8.976-2.4.897.6c3.89 2.1 8.078 3.3 12.266 3.3 4.488 0 8.976-1.2 12.865-3.6C48 37.2 51.29 22.5 44.41 11.1m-6.282 23.1c-1.197 1.8-2.693 3-4.787 3.3-1.197 0-2.693.6-8.676-1.8-5.086-2.4-9.275-6.3-12.266-10.8-1.796-2.1-2.693-4.8-2.992-7.5 0-2.4.897-4.5 2.393-6q.897-.9 1.795-.9h1.496c.598 0 1.197 0 1.496 1.2.598 1.5 2.094 5.1 2.094 5.4.3.3.3.9 0 1.2.3.6 0 1.2-.299 1.5-.3.3-.598.9-.898 1.2-.598.3-.897.9-.598 1.5 1.197 1.8 2.693 3.6 4.189 5.1 1.795 1.5 3.59 2.7 5.684 3.6.598.3 1.197.3 1.496-.3s1.795-2.1 2.393-2.7c.599-.6.898-.6 1.496-.3l4.787 2.4c.598.3 1.197.6 1.496.9.299.9.299 2.1-.3 3"/></svg>