<?xml version="1.0" encoding="UTF-8"?>
<svg xmlns="http://www.w3.org/2000/svg" xmlns:xlink="http://www.w3.org/1999/xlink" width="130px" height="40px" viewBox="0 0 130 40" version="1.1">
<g id="surface1">
<path style=" stroke:none;fill-rule:evenodd;fill:rgb(29.411766%,30.980393%,32.549021%);fill-opacity:1;" d="M 35.492188 39.199219 L 42.667969 39.199219 L 42.667969 0.402344 L 35.492188 0.402344 Z M 35.492188 39.199219 "/>
<path style=" stroke:none;fill-rule:evenodd;fill:rgb(29.411766%,30.980393%,32.549021%);fill-opacity:1;" d="M 58.007812 27.40625 C 58.007812 31.199219 59.644531 33.410156 64.785156 33.410156 C 66.773438 33.410156 68.816406 33.238281 70.808594 32.941406 L 70.808594 21.164062 L 77.761719 21.164062 L 77.761719 38.25 C 73.667969 39.414062 68.816406 40 64.730469 40 C 55.203125 40 50.644531 35.976562 50.644531 28.28125 L 50.644531 11.71875 C 50.644531 3.730469 55.320312 0 65.429688 0 C 68.585938 0 73.085938 0.351562 76.589844 1.28125 L 75.769531 7.695312 C 72.210938 6.9375 68.644531 6.648438 64.84375 6.648438 C 59.703125 6.648438 58.007812 8.746094 58.007812 12.710938 L 58.007812 27.40625 "/>
<path style=" stroke:none;fill-rule:evenodd;fill:rgb(29.411766%,30.980393%,32.549021%);fill-opacity:1;" d="M 86.136719 39.199219 L 93.3125 39.199219 L 93.3125 0.402344 L 86.136719 0.402344 Z M 86.136719 39.199219 "/>
<path style=" stroke:none;fill-rule:evenodd;fill:rgb(51.764709%,76.47059%,38.039216%);fill-opacity:1;" d="M 102.882812 27.601562 L 102.882812 0.402344 L 130 0.402344 L 102.882812 27.601562 "/>
<path style=" stroke:none;fill-rule:evenodd;fill:rgb(29.411766%,30.980393%,32.549021%);fill-opacity:1;" d="M 14.339844 0.402344 L 0 0.402344 L 0 6.894531 L 13.585938 6.863281 C 18.503906 6.863281 19.832031 8.847656 19.832031 12.574219 L 19.832031 27.023438 C 19.832031 30.753906 18.503906 32.734375 13.585938 32.734375 L 7.285156 32.734375 L 7.285156 10.527344 L 0 17.867188 L 0 39.199219 L 14.339844 39.199219 C 23.820312 39.199219 27.117188 34.308594 27.117188 28.773438 L 27.117188 10.828125 C 27.117188 5.234375 23.820312 0.402344 14.339844 0.402344 "/>
<path style=" stroke:none;fill-rule:evenodd;fill:rgb(29.411766%,30.980393%,32.549021%);fill-opacity:1;" d="M 98.4375 37.167969 C 98.722656 37.167969 98.894531 37.046875 98.894531 36.824219 C 98.894531 36.621094 98.777344 36.492188 98.460938 36.492188 L 98.164062 36.492188 L 98.164062 37.167969 Z M 97.730469 36.144531 L 98.535156 36.144531 C 98.980469 36.144531 99.359375 36.316406 99.359375 36.804688 C 99.359375 37.046875 99.203125 37.28125 98.96875 37.363281 L 99.453125 38.207031 L 98.96875 38.207031 L 98.597656 37.492188 L 98.164062 37.492188 L 98.164062 38.207031 L 97.730469 38.207031 Z M 100.066406 37.199219 C 100.066406 36.246094 99.378906 35.566406 98.488281 35.566406 C 97.605469 35.566406 96.925781 36.246094 96.925781 37.199219 C 96.925781 38.164062 97.605469 38.824219 98.488281 38.824219 C 99.378906 38.824219 100.066406 38.164062 100.066406 37.199219 Z M 96.503906 37.199219 C 96.503906 36.011719 97.402344 35.199219 98.488281 35.199219 C 99.589844 35.199219 100.492188 36.011719 100.492188 37.199219 C 100.492188 38.386719 99.589844 39.199219 98.488281 39.199219 C 97.402344 39.199219 96.503906 38.386719 96.503906 37.199219 Z M 96.503906 37.199219 "/>
</g>
</svg>
