<?xml version="1.0" encoding="UTF-8"?>
<svg xmlns="http://www.w3.org/2000/svg" xmlns:xlink="http://www.w3.org/1999/xlink" width="200px" height="105px" viewBox="0 0 200 105" version="1.1">
<g id="surface1">
<path style=" stroke:none;fill-rule:nonzero;fill:rgb(3.137255%,1.568627%,1.568627%);fill-opacity:1;" d="M 85.617188 -0.179688 C 86.957031 -0.175781 88.296875 -0.179688 89.636719 -0.179688 C 91.886719 -0.183594 94.136719 -0.179688 96.382812 -0.175781 C 98.96875 -0.167969 101.554688 -0.167969 104.140625 -0.175781 C 106.375 -0.183594 108.613281 -0.183594 110.847656 -0.179688 C 112.175781 -0.175781 113.503906 -0.175781 114.832031 -0.183594 C 126.132812 -0.214844 135.058594 1.707031 143.519531 9.730469 C 148.625 14.984375 152.351562 22.652344 152.382812 30.0625 C 152.386719 30.671875 152.386719 30.671875 152.390625 31.296875 C 152.390625 31.742188 152.390625 32.1875 152.390625 32.636719 C 152.394531 33.109375 152.398438 33.582031 152.398438 34.058594 C 152.40625 35.609375 152.410156 37.164062 152.414062 38.714844 C 152.414062 39.25 152.414062 39.789062 152.417969 40.324219 C 152.421875 42.851562 152.429688 45.378906 152.429688 47.902344 C 152.433594 50.804688 152.441406 53.707031 152.457031 56.609375 C 152.464844 58.863281 152.472656 61.113281 152.472656 63.367188 C 152.472656 64.707031 152.476562 66.046875 152.484375 67.386719 C 152.546875 78.070312 152.546875 78.070312 151 82.667969 C 150.902344 82.96875 150.804688 83.273438 150.707031 83.585938 C 150.476562 84.269531 150.222656 84.921875 149.9375 85.582031 C 149.839844 85.816406 149.742188 86.046875 149.640625 86.285156 C 146.398438 93.625 139.925781 99.652344 132.582031 102.769531 C 126.351562 105.007812 120.382812 105.203125 113.828125 105.179688 C 112.507812 105.175781 111.191406 105.179688 109.871094 105.179688 C 107.65625 105.183594 105.441406 105.179688 103.226562 105.171875 C 100.683594 105.167969 98.140625 105.167969 95.59375 105.175781 C 93.394531 105.183594 91.191406 105.183594 88.992188 105.179688 C 87.683594 105.175781 86.375 105.175781 85.070312 105.183594 C 74.253906 105.214844 65.75 103.667969 57.332031 96.332031 C 57.125 96.152344 56.917969 95.972656 56.703125 95.789062 C 51.257812 90.726562 47.703125 82.953125 47.269531 75.578125 C 47.242188 74.355469 47.234375 73.132812 47.238281 71.910156 C 47.234375 71.441406 47.230469 70.976562 47.230469 70.507812 C 47.222656 69.25 47.222656 67.992188 47.222656 66.734375 C 47.222656 65.941406 47.21875 65.152344 47.21875 64.363281 C 47.210938 61.597656 47.210938 58.835938 47.210938 56.070312 C 47.210938 53.507812 47.203125 50.949219 47.191406 48.386719 C 47.183594 46.175781 47.179688 43.964844 47.179688 41.753906 C 47.179688 40.4375 47.179688 39.121094 47.171875 37.808594 C 47.117188 27.308594 47.117188 27.308594 48.667969 22.332031 C 48.765625 22.019531 48.859375 21.707031 48.960938 21.386719 C 49.1875 20.703125 49.441406 20.054688 49.730469 19.394531 C 49.828125 19.164062 49.925781 18.933594 50.027344 18.699219 C 53.285156 11.367188 59.75 5.332031 67.105469 2.230469 C 73.300781 0.00390625 79.101562 -0.199219 85.617188 -0.179688 Z M 70.332031 6 C 70.0625 6.097656 69.792969 6.195312 69.515625 6.296875 C 62.296875 9.230469 56.851562 15.027344 53.8125 22.128906 C 51.65625 27.523438 51.800781 32.941406 51.820312 38.65625 C 51.824219 39.960938 51.820312 41.265625 51.820312 42.570312 C 51.816406 44.761719 51.820312 46.953125 51.824219 49.140625 C 51.832031 51.660156 51.832031 54.175781 51.824219 56.695312 C 51.816406 58.871094 51.816406 61.046875 51.820312 63.222656 C 51.824219 64.519531 51.824219 65.8125 51.816406 67.105469 C 51.71875 76.082031 51.71875 76.082031 54.625 84.480469 C 54.742188 84.699219 54.859375 84.921875 54.976562 85.148438 C 58.683594 92.09375 64.480469 97.097656 72.019531 99.480469 C 74.019531 100.054688 75.929688 100.375 78.015625 100.382812 C 78.410156 100.386719 78.804688 100.386719 79.214844 100.390625 C 79.644531 100.390625 80.074219 100.390625 80.519531 100.390625 C 80.980469 100.394531 81.441406 100.398438 81.902344 100.398438 C 83.414062 100.40625 84.925781 100.410156 86.433594 100.414062 C 86.957031 100.414062 87.480469 100.414062 88.003906 100.417969 C 90.460938 100.421875 92.917969 100.429688 95.375 100.429688 C 98.199219 100.433594 101.023438 100.441406 103.847656 100.457031 C 106.039062 100.464844 108.230469 100.472656 110.421875 100.472656 C 111.726562 100.472656 113.03125 100.476562 114.335938 100.484375 C 121.785156 100.625 121.785156 100.625 129 99 C 129.292969 98.894531 129.585938 98.789062 129.886719 98.683594 C 130.570312 98.425781 131.21875 98.132812 131.875 97.8125 C 132.105469 97.699219 132.339844 97.589844 132.578125 97.472656 C 139.03125 94.210938 144.015625 88.382812 146.386719 81.554688 C 147.113281 79.234375 147.707031 77.109375 147.714844 74.667969 C 147.71875 74.265625 147.71875 73.863281 147.722656 73.453125 C 147.722656 73.011719 147.726562 72.574219 147.726562 72.125 C 147.726562 71.65625 147.730469 71.191406 147.730469 70.722656 C 147.738281 69.1875 147.742188 67.652344 147.746094 66.117188 C 147.746094 65.589844 147.75 65.058594 147.75 64.527344 C 147.757812 62.03125 147.761719 59.539062 147.765625 57.042969 C 147.765625 54.175781 147.777344 51.308594 147.789062 48.441406 C 147.800781 46.21875 147.804688 43.992188 147.804688 41.769531 C 147.804688 40.445312 147.808594 39.121094 147.816406 37.796875 C 147.824219 36.546875 147.828125 35.296875 147.824219 34.046875 C 147.824219 33.382812 147.828125 32.714844 147.835938 32.046875 C 147.792969 24.308594 144.535156 17.703125 139.226562 12.199219 C 137.441406 10.53125 135.445312 9.222656 133.332031 8 C 133.023438 7.820312 132.714844 7.640625 132.398438 7.457031 C 126.496094 4.265625 120.386719 4.464844 113.875 4.488281 C 112.550781 4.492188 111.226562 4.488281 109.902344 4.484375 C 107.683594 4.484375 105.460938 4.488281 103.242188 4.492188 C 100.6875 4.5 98.132812 4.496094 95.578125 4.492188 C 93.371094 4.484375 91.164062 4.484375 88.953125 4.488281 C 87.644531 4.488281 86.332031 4.488281 85.019531 4.484375 C 77.558594 4.363281 77.558594 4.363281 70.332031 6 Z M 70.332031 6 "/>
<path style=" stroke:none;fill-rule:nonzero;fill:rgb(3.137255%,1.568627%,1.568627%);fill-opacity:1;" d="M 79.433594 38.253906 C 79.789062 38.25 79.789062 38.25 80.15625 38.246094 C 80.660156 38.242188 81.160156 38.238281 81.664062 38.234375 C 82.179688 38.230469 82.691406 38.222656 83.203125 38.214844 C 83.949219 38.199219 84.691406 38.195312 85.433594 38.191406 C 85.773438 38.183594 85.773438 38.183594 86.121094 38.171875 C 87.792969 38.179688 88.71875 38.613281 90 39.667969 C 90.941406 40.703125 91.125 41.367188 91.128906 42.757812 C 91.132812 43.113281 91.136719 43.46875 91.140625 43.832031 C 91.136719 44.222656 91.136719 44.609375 91.132812 45.011719 C 91.136719 45.421875 91.140625 45.832031 91.140625 46.253906 C 91.148438 47.378906 91.148438 48.503906 91.144531 49.628906 C 91.144531 50.566406 91.144531 51.507812 91.148438 52.445312 C 91.152344 54.664062 91.152344 56.878906 91.148438 59.097656 C 91.144531 61.382812 91.148438 63.667969 91.160156 65.953125 C 91.164062 67.914062 91.167969 69.878906 91.167969 71.839844 C 91.164062 73.015625 91.164062 74.1875 91.171875 75.359375 C 91.175781 76.664062 91.171875 77.972656 91.167969 79.277344 C 91.171875 79.667969 91.171875 80.054688 91.175781 80.453125 C 91.152344 83.074219 91.152344 83.074219 90.382812 84.382812 C 88.035156 86.40625 85.464844 86.152344 82.5 86.125 C 81.855469 86.128906 81.855469 86.128906 81.195312 86.136719 C 76.457031 86.121094 76.457031 86.121094 74.542969 84.207031 C 73.703125 82.855469 73.625 81.554688 73.621094 79.988281 C 73.617188 79.660156 73.617188 79.328125 73.613281 78.988281 C 73.613281 78.632812 73.613281 78.273438 73.613281 77.902344 C 73.609375 77.523438 73.609375 77.144531 73.609375 76.75 C 73.601562 75.496094 73.601562 74.238281 73.597656 72.980469 C 73.597656 72.109375 73.59375 71.234375 73.59375 70.359375 C 73.589844 68.761719 73.589844 67.164062 73.585938 65.566406 C 73.585938 63.21875 73.578125 60.871094 73.570312 58.523438 C 73.5625 56.484375 73.558594 54.445312 73.558594 52.410156 C 73.558594 51.542969 73.554688 50.679688 73.550781 49.8125 C 73.546875 48.601562 73.546875 47.394531 73.546875 46.183594 C 73.542969 45.824219 73.542969 45.46875 73.539062 45.101562 C 73.550781 42.753906 73.777344 41.058594 75.332031 39.207031 C 76.589844 38.1875 77.894531 38.269531 79.433594 38.253906 Z M 79.433594 38.253906 "/>
<path style=" stroke:none;fill-rule:nonzero;fill:rgb(3.137255%,1.568627%,1.568627%);fill-opacity:1;" d="M 101.03125 38.203125 C 101.265625 38.203125 101.496094 38.199219 101.734375 38.199219 C 102.496094 38.195312 103.257812 38.195312 104.019531 38.199219 C 104.550781 38.199219 105.085938 38.199219 105.617188 38.199219 C 106.730469 38.195312 107.84375 38.199219 108.953125 38.203125 C 110.378906 38.207031 111.804688 38.207031 113.226562 38.199219 C 114.324219 38.195312 115.421875 38.195312 116.519531 38.199219 C 117.046875 38.199219 117.570312 38.199219 118.097656 38.195312 C 118.832031 38.195312 119.566406 38.199219 120.300781 38.203125 C 120.71875 38.203125 121.136719 38.207031 121.566406 38.207031 C 123.179688 38.390625 124.011719 38.976562 125.082031 40.167969 C 126.324219 41.9375 126.074219 43.832031 126.082031 45.917969 C 126.089844 46.273438 126.097656 46.632812 126.105469 47 C 126.113281 49.027344 126.085938 50.589844 125 52.332031 C 123.5 53.546875 122.484375 53.835938 120.570312 53.839844 C 120.335938 53.839844 120.101562 53.84375 119.859375 53.847656 C 119.089844 53.851562 118.320312 53.847656 117.550781 53.84375 C 117.015625 53.84375 116.476562 53.847656 115.9375 53.847656 C 114.8125 53.847656 113.6875 53.847656 112.5625 53.839844 C 111.125 53.832031 109.683594 53.835938 108.246094 53.84375 C 107.136719 53.851562 106.023438 53.847656 104.914062 53.84375 C 104.382812 53.84375 103.855469 53.84375 103.324219 53.847656 C 102.582031 53.851562 101.839844 53.847656 101.09375 53.839844 C 100.675781 53.839844 100.253906 53.835938 99.816406 53.835938 C 98.144531 53.589844 97.085938 52.867188 96.050781 51.550781 C 95.292969 49.804688 95.511719 47.894531 95.519531 46.019531 C 95.515625 45.601562 95.507812 45.179688 95.5 44.746094 C 95.503906 40.847656 95.503906 40.847656 97 39.332031 C 98.363281 38.328125 99.355469 38.207031 101.03125 38.203125 Z M 101.03125 38.203125 "/>
<path style=" stroke:none;fill-rule:nonzero;fill:rgb(3.137255%,1.568627%,1.568627%);fill-opacity:1;" d="M 101.679688 58.203125 C 101.898438 58.203125 102.121094 58.199219 102.347656 58.199219 C 103.074219 58.195312 103.796875 58.195312 104.523438 58.199219 C 105.03125 58.199219 105.539062 58.199219 106.042969 58.199219 C 107.105469 58.195312 108.164062 58.199219 109.226562 58.203125 C 110.582031 58.207031 111.9375 58.207031 113.292969 58.199219 C 114.339844 58.195312 115.386719 58.195312 116.433594 58.199219 C 116.933594 58.199219 117.433594 58.199219 117.933594 58.195312 C 118.632812 58.195312 119.332031 58.199219 120.03125 58.203125 C 120.429688 58.203125 120.828125 58.207031 121.234375 58.207031 C 122.882812 58.398438 123.96875 58.949219 125.105469 60.144531 C 126.304688 61.96875 126.074219 63.992188 126.082031 66.105469 C 126.089844 66.445312 126.097656 66.785156 126.105469 67.136719 C 126.113281 69.128906 126.03125 70.601562 125 72.332031 C 123.667969 73.667969 122.75 73.835938 120.886719 73.851562 C 120.644531 73.851562 120.40625 73.855469 120.15625 73.859375 C 119.367188 73.871094 118.574219 73.867188 117.785156 73.867188 C 117.230469 73.871094 116.679688 73.871094 116.125 73.875 C 114.96875 73.878906 113.8125 73.878906 112.65625 73.878906 C 111.175781 73.875 109.695312 73.882812 108.21875 73.898438 C 107.078125 73.910156 105.933594 73.910156 104.792969 73.910156 C 104.25 73.910156 103.703125 73.914062 103.160156 73.917969 C 98.371094 73.972656 98.371094 73.972656 96.835938 72.714844 C 95.136719 70.910156 95.578125 68.375 95.5625 66.0625 C 95.554688 65.636719 95.542969 65.214844 95.535156 64.777344 C 95.507812 61.28125 95.507812 61.28125 96.195312 60.101562 C 97.816406 58.554688 99.492188 58.207031 101.679688 58.203125 Z M 101.679688 58.203125 "/>
<path style=" stroke:none;fill-rule:nonzero;fill:rgb(78.823529%,10.588235%,10.980392%);fill-opacity:1;" d="M 82.4375 18.917969 C 83.089844 18.90625 83.089844 18.90625 83.757812 18.894531 C 87.898438 18.878906 87.898438 18.878906 89.667969 20 C 90.960938 21.3125 91.171875 22.195312 91.1875 24.019531 C 91.191406 24.351562 91.191406 24.351562 91.195312 24.691406 C 91.199219 25.160156 91.195312 25.628906 91.191406 26.097656 C 91.1875 26.808594 91.199219 27.519531 91.210938 28.230469 C 91.234375 32.023438 91.234375 32.023438 90.28125 33.28125 C 87.945312 35.050781 85.320312 34.777344 82.519531 34.769531 C 82.089844 34.777344 81.65625 34.78125 81.210938 34.785156 C 77.21875 34.789062 77.21875 34.789062 75.332031 33.667969 C 73.378906 31.714844 73.605469 29.472656 73.605469 26.875 C 73.597656 26.414062 73.597656 26.414062 73.589844 25.945312 C 73.582031 21.957031 73.582031 21.957031 74.789062 20.417969 C 77.191406 18.617188 79.523438 18.929688 82.4375 18.917969 Z M 82.4375 18.917969 "/>
</g>
</svg>
