<?xml version="1.0" encoding="UTF-8"?>
<svg xmlns="http://www.w3.org/2000/svg" xmlns:xlink="http://www.w3.org/1999/xlink" width="224px" height="40px" viewBox="0 0 224 40" version="1.1">
<g id="surface1">
<path style=" stroke:none;fill-rule:nonzero;fill:rgb(0%,0%,0%);fill-opacity:1;" d="M 3.023438 0.152344 C 1.792969 0.484375 0.796875 1.539062 0.53125 2.789062 C 0.402344 3.410156 0.402344 36.613281 0.53125 37.234375 C 0.800781 38.515625 1.855469 39.601562 3.136719 39.914062 C 3.40625 39.984375 8.65625 39.992188 34.828125 39.992188 L 66.203125 39.992188 L 66.628906 39.835938 C 67.722656 39.4375 68.539062 38.640625 68.882812 37.621094 L 69.011719 37.234375 L 69.027344 20.171875 C 69.042969 1.328125 69.070312 2.757812 68.675781 1.941406 C 68.421875 1.410156 67.6875 0.671875 67.167969 0.421875 C 66.953125 0.324219 66.628906 0.199219 66.433594 0.144531 C 66.125 0.0703125 62.617188 0.0585938 34.710938 0.0664062 C 7.410156 0.0664062 3.300781 0.078125 3.023438 0.152344 Z M 24.734375 7.152344 C 26.273438 7.253906 27.414062 7.515625 28.511719 8.035156 C 29.210938 8.367188 29.679688 8.671875 30.339844 9.234375 C 31.6875 10.367188 32.421875 11.445312 32.953125 13.035156 C 33.3125 14.125 33.367188 14.496094 33.367188 15.902344 C 33.359375 17.007812 33.34375 17.230469 33.234375 17.695312 C 32.640625 20.085938 30.828125 22.382812 28.683594 23.453125 L 28.136719 23.726562 L 28.308594 23.9375 C 30.253906 26.273438 31.148438 28.679688 31.324219 32.054688 L 31.363281 32.863281 L 26.140625 32.863281 L 26.140625 32.300781 C 26.140625 30.722656 25.640625 29.089844 24.78125 27.832031 C 24.414062 27.296875 23.464844 26.320312 22.890625 25.890625 C 21.855469 25.117188 20.496094 24.636719 18.886719 24.480469 C 18.515625 24.4375 16.246094 24.414062 12.90625 24.414062 L 7.527344 24.414062 L 7.539062 21.929688 L 7.554688 19.453125 L 16.421875 19.421875 C 24.875 19.394531 25.308594 19.390625 25.609375 19.285156 C 26.652344 18.929688 27.375 18.296875 27.863281 17.289062 C 28.359375 16.292969 28.359375 15.199219 27.890625 14.234375 C 27.445312 13.34375 26.765625 12.722656 25.859375 12.382812 C 25.097656 12.09375 24.898438 12.089844 15.914062 12.089844 L 7.527344 12.089844 L 7.527344 9.636719 C 7.527344 8.285156 7.546875 7.160156 7.566406 7.140625 C 7.625 7.082031 23.757812 7.09375 24.734375 7.152344 Z M 61.957031 9.652344 L 61.957031 12.140625 L 55.246094 12.167969 C 47.90625 12.183594 48.046875 12.175781 46.8125 12.535156 C 45.730469 12.847656 44.449219 13.613281 43.640625 14.429688 C 42.554688 15.527344 41.609375 17.347656 41.410156 18.722656 C 41.359375 19.089844 41.332031 21.015625 41.316406 26.039062 L 41.292969 32.863281 L 36.085938 32.863281 L 36.085938 27.007812 C 36.085938 19.847656 36.140625 18.679688 36.511719 16.960938 C 37 14.648438 38.355469 12.378906 40.273438 10.613281 C 41.597656 9.40625 42.671875 8.722656 44.160156 8.136719 C 45.421875 7.636719 46.660156 7.324219 47.734375 7.226562 C 48.039062 7.203125 51.363281 7.171875 55.128906 7.167969 L 61.957031 7.160156 Z M 61.957031 20.042969 L 61.957031 22.535156 L 48.554688 22.535156 L 48.554688 17.546875 L 61.957031 17.546875 Z M 61.957031 20.042969 "/>
<path style=" stroke:none;fill-rule:nonzero;fill:rgb(0%,0%,0%);fill-opacity:1;" d="M 72.960938 9.625 L 72.960938 12.140625 L 79.796875 12.167969 C 87.261719 12.1875 86.859375 12.171875 88.148438 12.535156 C 89.558594 12.933594 91.140625 14.046875 92.046875 15.253906 C 93.03125 16.578125 93.679688 18.480469 93.679688 20.042969 C 93.679688 21.480469 93.132812 23.136719 92.171875 24.589844 C 91.1875 26.085938 89.183594 27.347656 87.183594 27.734375 C 86.671875 27.832031 86.136719 27.847656 79.796875 27.863281 L 72.960938 27.882812 L 72.960938 32.789062 L 73.183594 32.828125 C 73.550781 32.890625 85.925781 32.867188 86.6875 32.804688 C 88.003906 32.695312 89.199219 32.476562 90.078125 32.1875 C 90.660156 32 91.921875 31.390625 92.679688 30.945312 C 95.921875 29.003906 98.152344 25.613281 98.691406 21.789062 C 98.820312 20.859375 98.820312 19.148438 98.691406 18.246094 C 98.292969 15.445312 97.113281 13.046875 95.167969 11.054688 C 93.960938 9.828125 93.210938 9.277344 91.777344 8.5625 C 90.359375 7.859375 89.035156 7.453125 87.535156 7.269531 C 86.875 7.1875 81.570312 7.109375 77.015625 7.101562 L 72.960938 7.101562 Z M 72.960938 9.625 "/>
<path style=" stroke:none;fill-rule:nonzero;fill:rgb(0%,0%,0%);fill-opacity:1;" d="M 114.226562 7.167969 C 112.613281 7.210938 112.078125 7.265625 110.976562 7.511719 C 109.507812 7.832031 108.21875 8.402344 106.757812 9.386719 C 105.273438 10.367188 104.179688 11.480469 103.132812 13.050781 C 102.113281 14.589844 101.453125 16.390625 101.195312 18.316406 C 101.066406 19.308594 101.109375 21.277344 101.277344 22.242188 C 101.738281 24.824219 102.980469 27.226562 104.789062 29.039062 C 105.855469 30.101562 106.921875 30.84375 108.394531 31.574219 C 109.746094 32.230469 110.574219 32.476562 112.292969 32.730469 C 112.890625 32.816406 113.777344 32.828125 119.921875 32.847656 L 126.863281 32.867188 L 126.863281 27.875 L 120.425781 27.875 C 112.949219 27.875 112.691406 27.863281 111.359375 27.363281 C 110.625 27.089844 110.320312 26.9375 109.6875 26.503906 C 108.046875 25.390625 106.796875 23.480469 106.375 21.460938 C 106.195312 20.613281 106.195312 19.460938 106.367188 18.5625 C 106.65625 17.125 107.542969 15.453125 108.578125 14.402344 C 109.394531 13.574219 110.796875 12.757812 111.90625 12.472656 C 113.128906 12.152344 113.351562 12.148438 120.382812 12.148438 L 126.863281 12.148438 L 126.863281 7.101562 L 121.265625 7.109375 C 118.179688 7.117188 115.015625 7.140625 114.226562 7.167969 Z M 114.226562 7.167969 "/>
<path style=" stroke:none;fill-rule:nonzero;fill:rgb(0%,0%,0%);fill-opacity:1;" d="M 181.09375 7.160156 C 179.484375 7.21875 178.160156 7.40625 177.210938 7.699219 C 176.605469 7.890625 175.480469 8.359375 174.8125 8.714844 C 171.960938 10.230469 169.757812 12.859375 168.75 15.933594 C 168.273438 17.390625 168.109375 18.46875 168.105469 20.042969 C 168.105469 21.316406 168.199219 22.058594 168.511719 23.273438 C 169.316406 26.445312 171.390625 29.25 174.140625 30.917969 C 175.296875 31.613281 176.871094 32.269531 177.960938 32.5 C 179.296875 32.789062 179.789062 32.824219 183.390625 32.847656 L 186.796875 32.875 L 186.796875 27.882812 L 183.484375 27.859375 C 180.390625 27.832031 180.113281 27.828125 179.59375 27.710938 C 178.394531 27.453125 177.242188 26.953125 176.433594 26.351562 C 175.894531 25.945312 175.070312 25.058594 174.675781 24.472656 C 172.753906 21.5625 172.753906 18.460938 174.675781 15.550781 C 175.082031 14.941406 175.847656 14.132812 176.433594 13.683594 C 177.269531 13.050781 178.296875 12.605469 179.574219 12.320312 L 180.15625 12.183594 L 187.050781 12.167969 L 193.941406 12.140625 L 193.910156 7.132812 L 188.058594 7.125 C 184.839844 7.125 181.707031 7.136719 181.09375 7.160156 Z M 181.09375 7.160156 "/>
<path style=" stroke:none;fill-rule:nonzero;fill:rgb(0%,0%,0%);fill-opacity:1;" d="M 136.902344 7.253906 C 135.449219 7.429688 134.273438 7.941406 133.035156 8.945312 C 131.578125 10.117188 130.71875 11.5625 130.457031 13.265625 C 130.347656 14.007812 130.355469 15.511719 130.464844 16.171875 C 130.640625 17.171875 131.132812 18.390625 131.625 19.046875 C 131.769531 19.234375 132.113281 19.625 132.390625 19.90625 C 133.585938 21.109375 134.773438 21.769531 136.390625 22.132812 C 136.953125 22.261719 137.070312 22.261719 142.785156 22.296875 C 147.929688 22.324219 148.640625 22.339844 148.855469 22.421875 C 150.582031 23.09375 151.199219 24.882812 150.21875 26.402344 C 149.859375 26.972656 149.269531 27.378906 148.59375 27.515625 C 148.367188 27.566406 145.675781 27.582031 139.300781 27.582031 L 130.320312 27.582031 L 130.320312 32.867188 L 139.730469 32.847656 C 150.003906 32.824219 149.558594 32.839844 150.636719 32.484375 C 151.371094 32.234375 152.25 31.808594 152.707031 31.453125 C 154.703125 29.941406 155.765625 28.234375 156.078125 26.0625 C 156.167969 25.453125 156.117188 24.15625 155.984375 23.476562 C 155.859375 22.832031 155.519531 21.785156 155.296875 21.332031 C 154.765625 20.269531 153.796875 19.160156 152.796875 18.492188 C 152.121094 18.039062 150.960938 17.464844 150.472656 17.339844 C 149.355469 17.058594 149.28125 17.058594 143.253906 17.015625 C 138.984375 16.996094 137.496094 16.964844 137.328125 16.914062 C 137.015625 16.808594 136.441406 16.355469 136.207031 16.039062 C 135.792969 15.476562 135.671875 14.765625 135.878906 14.140625 C 136.175781 13.25 136.757812 12.695312 137.578125 12.507812 C 137.753906 12.464844 140.886719 12.441406 146.8125 12.441406 L 155.777344 12.441406 L 155.777344 7.160156 L 146.667969 7.167969 C 139.421875 7.171875 137.414062 7.1875 136.902344 7.253906 Z M 136.902344 7.253906 "/>
<path style=" stroke:none;fill-rule:nonzero;fill:rgb(0%,0%,0%);fill-opacity:1;" d="M 159.640625 20.011719 L 159.640625 32.863281 L 164.792969 32.863281 L 164.792969 7.160156 L 159.640625 7.160156 Z M 159.640625 20.011719 "/>
<path style=" stroke:none;fill-rule:nonzero;fill:rgb(0%,0%,0%);fill-opacity:1;" d="M 209.105469 7.226562 C 206.769531 7.472656 204.457031 8.433594 202.574219 9.941406 C 202.027344 10.382812 200.863281 11.539062 200.421875 12.089844 C 199.3125 13.460938 198.421875 15.3125 198.039062 17.066406 C 197.726562 18.476562 197.726562 18.53125 197.703125 25.953125 L 197.679688 32.863281 L 202.828125 32.863281 L 202.855469 26.097656 C 202.871094 19.488281 202.878906 19.320312 203 18.691406 C 203.328125 16.964844 204.015625 15.605469 205.125 14.5 C 206.816406 12.796875 209.351562 11.863281 211.425781 12.171875 C 212.691406 12.359375 213.789062 12.789062 214.898438 13.527344 C 216.632812 14.683594 217.671875 16.265625 218.175781 18.515625 L 218.3125 19.101562 L 218.328125 25.984375 L 218.351562 32.863281 L 223.503906 32.863281 L 223.480469 25.898438 C 223.453125 18.476562 223.460938 18.628906 223.171875 17.167969 C 222.777344 15.195312 221.722656 13.109375 220.347656 11.589844 C 218.054688 9.03125 215.265625 7.578125 212.015625 7.226562 C 211.351562 7.148438 209.8125 7.152344 209.105469 7.226562 Z M 209.105469 7.226562 "/>
<path style=" stroke:none;fill-rule:nonzero;fill:rgb(0%,0%,0%);fill-opacity:1;" d="M 113.460938 20.011719 L 113.460938 22.476562 L 126.863281 22.476562 L 126.863281 17.546875 L 113.460938 17.546875 Z M 113.460938 20.011719 "/>
<path style=" stroke:none;fill-rule:nonzero;fill:rgb(0%,0%,0%);fill-opacity:1;" d="M 180.480469 20.011719 L 180.480469 22.476562 L 188.847656 22.476562 L 188.847656 32.863281 L 193.941406 32.863281 L 193.941406 17.546875 L 180.480469 17.546875 Z M 180.480469 20.011719 "/>
</g>
</svg>
