<svg width="32" height="32" viewBox="0 0 32 32" fill="none" xmlns="http://www.w3.org/2000/svg">
<path d="M3 6.9653L6.88388 13.892V18.1171L3.00454 25.0301L3 6.9653Z" fill="#5B57A2"/>
<path d="M17.9125 11.3715L21.5519 9.14585L29 9.13891L17.9125 15.916V11.3715Z" fill="#D90751"/>
<path d="M17.892 6.92455L17.9126 16.0952L14.0196 13.7086V0L17.892 6.92455Z" fill="#FAB718"/>
<path d="M29 9.13891L21.5519 9.14585L17.892 6.92455L14.0196 0L29 9.13891Z" fill="#ED6F26"/>
<path d="M17.9126 25.0685V20.6192L14.0196 18.2778L14.0217 32L17.9126 25.0685Z" fill="#63B22F"/>
<path d="M21.5428 22.8632L6.88388 13.892L3 6.9653L28.9842 22.8541L21.5428 22.8632Z" fill="#1487C9"/>
<path d="M14.0217 32L17.9126 25.0685L21.5428 22.8632L28.9842 22.8541L14.0217 32Z" fill="#017F36"/>
<path d="M3.00454 25.0301L14.0514 18.278L10.3375 16.0044L6.88388 18.1171L3.00454 25.0301Z" fill="#984995"/>
</svg>
