<svg width="32" height="32" viewBox="0 0 32 32" fill="none" xmlns="http://www.w3.org/2000/svg">
<circle cx="16" cy="16" r="16" fill="#F9DC26"/>
<path d="M7 8H25V17.0527C25 19.3735 23.7619 21.5179 21.7523 22.6784L16 26L10.2477 22.6784C8.23798 21.5179 7 19.3735 7 17.0527V8Z" fill="white"/>
<path fill-rule="evenodd" clip-rule="evenodd" d="M11.5 13.5V16.4916C11.9268 16.0297 12.7026 15.717 13.5898 15.717H14.5539V19.1946C14.5539 20.1198 14.2917 20.9296 13.9025 21.375H18.0961C17.7079 20.9291 17.4462 20.1204 17.4462 19.1963V15.717H18.4103C19.2974 15.717 20.0732 16.0297 20.5 16.4916V13.5H11.5Z" fill="#28292A"/>
</svg>
